<?xml version="1.0" standalone="no"?>
<!DOCTYPE svg PUBLIC "-//W3C//DTD SVG 20010904//EN"
 "http://www.w3.org/TR/2001/REC-SVG-20010904/DTD/svg10.dtd">
<svg version="1.0" xmlns="http://www.w3.org/2000/svg"
 width="600.000000pt" height="600.000000pt" viewBox="0 0 600.000000 600.000000"
 preserveAspectRatio="xMidYMid meet">

<g transform="translate(0.000000,600.000000) scale(0.100000,-0.100000)"
fill="#000000" stroke="none">
<path d="M3028 5097 c6 -7 14 -32 18 -55 l7 -42 -46 0 c-25 0 -49 5 -52 10 -3
6 -23 10 -44 10 -20 0 -42 5 -47 10 -6 6 -48 10 -95 11 -107 0 -132 -2 -141
-15 -5 -7 -8 -7 -8 2 0 18 -49 35 -65 22 -6 -5 -15 -7 -18 -3 -6 6 -8 -1 -11
-47 -1 -8 -9 -16 -18 -18 -11 -2 -17 -11 -15 -24 1 -11 -4 -23 -10 -25 -8 -3
-13 4 -13 16 0 11 -4 23 -10 26 -5 3 -10 -4 -10 -16 0 -19 -2 -20 -17 -8 -11
10 -14 10 -9 2 4 -7 3 -13 -3 -13 -6 0 -8 -7 -5 -15 8 -20 -5 -19 -27 1 -14
12 -22 13 -38 4 -12 -6 -21 -18 -21 -26 0 -10 -6 -14 -15 -10 -10 3 -18 -1
-22 -11 -8 -22 -52 -60 -78 -69 -10 -4 -25 -13 -33 -20 -7 -8 -19 -14 -26 -14
-20 0 -83 -92 -90 -132 -4 -20 -13 -39 -21 -42 -8 -3 -15 -12 -15 -19 0 -15
-78 -87 -95 -87 -5 0 -4 -4 3 -9 11 -6 8 -14 -12 -34 -14 -14 -26 -35 -26 -46
0 -11 -4 -22 -9 -25 -5 -3 -7 -14 -5 -24 3 -10 -13 -40 -37 -71 -23 -30 -43
-64 -44 -75 -8 -50 -16 -71 -54 -130 -48 -77 -70 -138 -70 -202 -1 -122 6
-331 12 -349 4 -11 11 -60 16 -109 6 -48 14 -93 19 -100 5 -6 13 -36 16 -67 4
-31 14 -78 22 -105 9 -27 18 -62 20 -78 2 -16 11 -37 19 -46 20 -22 37 -110
21 -110 -8 0 -7 -3 1 -8 18 -12 33 -59 37 -119 4 -54 18 -84 33 -70 4 4 8 143
9 308 2 300 2 301 27 337 13 20 27 54 31 75 4 20 12 37 18 37 9 0 9 3 1 11 -9
9 -6 19 9 40 21 27 32 119 15 119 -4 0 -5 11 -3 25 3 14 0 39 -5 54 -8 23 -7
37 6 61 9 17 18 44 20 60 5 42 33 79 77 101 21 11 71 51 111 88 102 97 184
135 315 146 15 1 35 5 45 10 9 4 26 5 37 2 11 -3 36 -1 55 4 45 13 148 -5 193
-33 37 -23 117 -35 127 -19 3 6 26 11 51 11 24 0 44 4 44 9 0 4 23 11 52 14
28 4 54 11 58 17 11 17 145 -8 205 -39 78 -40 192 -90 221 -97 16 -3 43 -16
59 -28 17 -12 42 -27 57 -33 15 -7 34 -26 43 -43 8 -16 20 -30 26 -30 6 0 7
-4 4 -10 -3 -5 0 -10 8 -10 8 0 19 -6 25 -13 6 -7 25 -14 43 -15 69 -5 89 -48
93 -189 2 -40 5 -76 9 -80 11 -10 8 -25 -3 -18 -14 9 -12 -8 3 -24 10 -11 9
-12 -2 -6 -26 15 0 -58 33 -93 17 -18 30 -36 30 -40 -2 -9 5 -27 28 -79 10
-23 23 -89 29 -145 5 -57 19 -172 29 -256 11 -84 20 -175 20 -202 0 -35 4 -50
13 -50 14 0 29 -23 46 -71 12 -34 -8 -65 -49 -74 -24 -5 -31 -13 -36 -41 -3
-18 -9 -32 -13 -30 -4 3 -8 -7 -9 -22 -1 -15 -7 -28 -12 -30 -6 -2 -10 -15
-10 -28 0 -14 -6 -27 -14 -30 -8 -3 -14 -13 -14 -22 0 -9 -1 -24 -3 -32 -2 -9
2 -14 11 -12 10 1 9 -2 -4 -13 -16 -12 -17 -18 -8 -27 7 -7 13 -28 13 -47 1
-33 2 -34 8 -9 l6 28 30 -20 c49 -32 125 -21 96 14 -8 9 -19 16 -26 16 -37 0
-66 113 -33 131 14 8 14 15 5 45 -9 31 -9 37 7 46 10 6 27 21 38 34 16 17 27
22 49 17 38 -7 79 33 79 79 0 18 3 51 7 72 4 28 3 37 -5 32 -7 -4 -12 -1 -12
7 0 7 -23 24 -51 37 -68 32 -74 47 -44 106 26 50 32 84 16 84 -13 0 -2 35 27
89 16 29 26 65 28 96 5 107 14 233 23 300 5 39 9 83 10 99 1 16 7 37 15 45 14
17 26 88 31 186 2 45 -2 68 -16 93 -10 18 -19 42 -19 52 0 10 -5 22 -11 25
-13 9 -79 149 -79 169 0 8 -4 18 -10 21 -5 3 -23 36 -40 73 -16 37 -34 74 -40
82 -5 8 -17 31 -27 50 -9 19 -24 40 -33 47 -13 11 -13 12 0 13 8 0 -2 11 -22
23 -52 32 -81 70 -65 86 9 10 8 14 -5 22 -10 6 -18 16 -18 23 0 8 -7 19 -16
27 -9 7 -22 30 -31 50 -9 24 -29 46 -58 64 -24 15 -48 38 -53 50 -6 13 -39 36
-79 55 -37 18 -80 46 -95 61 -25 27 -37 31 -108 32 -14 1 -33 8 -43 17 -10 10
-37 22 -60 29 -23 7 -64 19 -92 27 -27 8 -59 16 -70 17 -37 5 -156 70 -176 96
-20 25 -55 50 -73 51 -5 0 -4 -6 2 -13z m72 -68 c0 -5 -4 -9 -10 -9 -5 0 -10
7 -10 16 0 8 5 12 10 9 6 -3 10 -10 10 -16z"/>
<path d="M3680 3380 c0 -5 5 -10 12 -10 6 0 8 -3 5 -6 -4 -4 -12 -2 -19 4 -7
5 -35 8 -63 6 -27 -1 -94 -5 -147 -8 -70 -3 -105 -10 -124 -23 -15 -9 -40 -16
-56 -14 -22 2 -30 -3 -38 -23 -6 -17 -14 -24 -25 -20 -8 3 -15 1 -15 -6 0 -6
-4 -8 -10 -5 -5 3 -10 1 -10 -5 0 -7 -6 -26 -13 -43 -27 -63 -39 -111 -40
-156 -1 -59 7 -71 44 -71 23 0 29 4 29 23 1 29 27 61 68 82 46 23 50 13 7 -19
-19 -15 -35 -31 -35 -36 0 -13 81 29 118 61 36 32 68 39 58 13 -3 -8 1 -30 8
-49 12 -27 23 -36 57 -45 56 -15 85 -6 112 35 24 38 47 46 47 16 0 -11 5 -23
10 -26 6 -4 8 -14 6 -23 -8 -24 9 -46 28 -39 8 3 18 2 21 -4 4 -5 13 -6 22 0
9 4 31 5 49 1 23 -5 37 -4 42 4 21 33 28 54 27 86 -1 34 0 35 31 32 45 -5 95
18 92 42 -3 21 -45 73 -107 132 -29 28 -59 46 -90 54 -25 6 -54 20 -64 31 -19
21 -37 25 -37 9z m-49 -120 c60 -9 162 -50 142 -57 -24 -8 -13 -23 16 -23 24
0 29 -4 28 -20 -1 -11 -2 -20 -2 -20 -1 0 -30 12 -66 26 -49 19 -97 28 -203
37 -116 10 -136 14 -123 25 23 20 120 52 137 46 8 -3 40 -9 71 -14z m-215 -90
c-51 -25 -59 -25 -21 0 17 11 37 20 45 20 8 -1 -3 -10 -24 -20z m94 -41 c0 -5
-7 -9 -15 -9 -8 0 -15 7 -15 15 0 9 6 12 15 9 8 -4 15 -10 15 -15z"/>
<path d="M2246 3322 c-54 -26 -130 -98 -120 -114 4 -6 0 -14 -7 -19 -12 -8
-12 -11 1 -19 35 -23 58 -6 50 35 -1 6 4 4 11 -2 7 -7 21 -13 32 -13 10 0 15
-4 12 -10 -3 -5 -2 -10 3 -10 5 0 15 11 22 25 7 14 19 25 27 25 7 0 21 4 31 9
83 42 298 31 352 -18 l29 -26 -112 -1 c-166 -2 -277 -34 -344 -102 -46 -45
-40 -62 26 -79 60 -15 76 -13 77 8 1 32 26 75 49 86 21 9 25 9 25 -6 0 -9 13
-31 29 -49 27 -29 34 -31 77 -27 54 5 70 17 88 68 l12 36 45 -28 c24 -16 58
-32 74 -36 l30 -7 -24 26 c-32 34 -25 39 27 16 36 -17 42 -17 42 -4 0 9 -10
30 -22 46 l-22 31 26 -6 c22 -6 28 -3 37 23 11 33 -3 95 -20 84 -5 -3 -6 2 -3
10 4 10 -4 16 -25 21 -17 3 -35 4 -41 0 -5 -3 -13 1 -16 10 -4 9 -13 14 -20
11 -8 -3 -14 1 -14 9 0 8 -3 14 -7 14 -5 -1 -10 -1 -13 0 -3 1 -88 3 -189 5
-175 2 -186 1 -235 -22z m389 -172 c8 -13 -5 -13 -25 0 -13 8 -13 10 2 10 9 0
20 -4 23 -10z m-115 -30 c12 -8 11 -10 -7 -10 -13 0 -23 5 -23 10 0 13 11 13
30 0z"/>
<path d="M4305 3038 c-19 -22 -24 -37 -20 -52 4 -12 13 -50 19 -86 7 -36 22
-91 34 -123 22 -58 27 -128 15 -201 -4 -28 -19 -52 -55 -88 -49 -49 -56 -62
-38 -73 14 -9 55 33 79 80 35 70 71 223 71 307 0 112 -40 268 -69 268 -5 0
-21 -14 -36 -32z"/>
<path d="M1684 3015 c-4 -8 -3 -26 0 -40 6 -22 8 -24 34 -13 15 7 29 13 31 15
6 4 -41 53 -51 53 -5 0 -11 -7 -14 -15z"/>
<path d="M3550 2995 c0 -8 7 -15 15 -15 8 0 15 4 15 9 0 5 -7 11 -15 15 -9 3
-15 0 -15 -9z"/>
<path d="M3600 3000 c0 -5 5 -10 11 -10 5 0 7 5 4 10 -3 6 -8 10 -11 10 -2 0
-4 -4 -4 -10z"/>
<path d="M2400 2985 c0 -8 5 -15 10 -15 6 0 10 7 10 15 0 8 -4 15 -10 15 -5 0
-10 -7 -10 -15z"/>
<path d="M3200 2695 c0 -8 2 -15 4 -15 2 0 6 7 10 15 3 8 1 15 -4 15 -6 0 -10
-7 -10 -15z"/>
<path d="M3085 2514 c-38 -39 -59 -53 -87 -57 -34 -5 -41 -2 -81 40 -56 57
-88 60 -128 12 -31 -37 -35 -54 -17 -65 7 -4 8 -3 4 4 -10 17 28 32 82 32 40
0 53 -5 73 -26 13 -15 41 -37 62 -50 33 -22 36 -26 25 -44 -10 -15 -10 -22 0
-32 6 -6 12 -19 12 -28 0 -9 16 -24 35 -33 31 -15 35 -15 35 -1 0 12 6 10 29
-9 16 -13 45 -27 64 -31 19 -4 40 -13 47 -21 7 -8 19 -15 26 -15 17 0 17 -1 4
-35 -10 -27 -12 -27 -68 -19 -75 10 -117 7 -157 -11 -24 -12 -38 -13 -59 -5
-28 10 -72 5 -93 -13 -9 -6 -15 -4 -19 6 -6 17 -35 16 -94 -4 -19 -6 -65 -12
-102 -13 -61 -3 -69 -5 -94 -35 -14 -17 -24 -35 -21 -38 4 -3 28 0 54 8 26 7
62 14 78 14 17 1 44 8 60 15 46 21 429 25 449 5 8 -8 19 -15 25 -15 6 0 8 -7
5 -15 -7 -17 -7 -17 59 -20 68 -2 161 18 165 37 2 8 -9 30 -24 48 -22 26 -25
33 -13 40 11 7 11 12 1 22 -9 9 -12 9 -12 -5 0 -10 -7 -16 -17 -15 -37 3 -53
-2 -53 -17 0 -9 -9 -15 -25 -15 -14 0 -25 4 -25 9 0 5 -3 17 -6 25 -4 11 -2
15 7 11 8 -3 20 4 27 15 11 18 9 24 -13 44 -14 13 -25 27 -25 33 0 5 -22 31
-49 58 -27 28 -52 61 -56 75 -6 24 -3 27 43 39 61 15 92 43 91 79 -1 33 -17
84 -18 60 -1 -22 -50 -80 -62 -72 -5 3 -9 16 -9 29 0 27 -10 35 -54 44 -28 6
-36 1 -81 -45z m22 -216 c-3 -8 -6 -5 -6 6 -1 11 2 17 5 13 3 -3 4 -12 1 -19z"/>
<path d="M2843 2342 c-10 -43 -9 -49 11 -68 33 -32 57 -38 63 -14 3 11 9 21
14 21 5 1 13 2 19 3 5 0 17 11 26 24 18 26 5 52 -27 52 -9 0 -24 7 -33 15 -18
18 -30 4 -21 -24 3 -11 1 -22 -4 -25 -5 -4 -12 7 -16 24 -10 46 -20 43 -32 -8z"/>
<path d="M1951 2317 c1 -29 -3 -62 -10 -74 -16 -31 -14 -34 13 -27 13 3 27 1
30 -5 4 -6 13 -11 19 -11 8 0 9 3 1 8 -18 12 -26 45 -13 53 9 5 8 12 -4 24
-10 9 -17 32 -17 51 0 19 -5 34 -10 34 -6 0 -10 -22 -9 -53z"/>
<path d="M2795 2301 c-3 -5 -1 -12 5 -16 5 -3 10 1 10 9 0 18 -6 21 -15 7z"/>
<path d="M2816 2271 c-4 -5 -2 -12 3 -15 5 -4 12 -2 15 3 4 5 2 12 -3 15 -5 4
-12 2 -15 -3z"/>
<path d="M3343 2192 c0 -24 4 -28 19 -24 27 7 32 21 11 29 -10 4 -21 10 -24
15 -3 5 -6 -4 -6 -20z"/>
<path d="M4015 2128 c-12 -35 -13 -58 -4 -58 13 0 11 -34 -2 -47 -7 -7 -7 -13
-1 -17 12 -7 34 77 26 98 -4 9 -1 23 6 31 10 12 10 15 -3 15 -8 0 -18 -10 -22
-22z"/>
<path d="M2600 2124 c0 -8 5 -12 10 -9 6 4 8 11 5 16 -9 14 -15 11 -15 -7z"/>
<path d="M3940 2123 c0 -6 -12 -10 -26 -8 -21 2 -25 -1 -21 -16 3 -11 0 -19
-5 -19 -7 0 -6 -5 1 -13 14 -18 2 -30 -16 -16 -9 8 -13 8 -13 1 0 -6 8 -15 18
-21 16 -9 16 -10 0 -16 -9 -4 -14 -13 -11 -21 6 -17 -8 -18 -26 -1 -11 10 -13
9 -8 -5 7 -21 -4 -23 -21 -6 -9 9 -12 5 -12 -20 0 -18 5 -32 10 -32 6 0 10 5
10 10 0 6 8 5 20 -2 11 -7 20 -22 20 -33 -1 -18 -1 -19 -11 -2 -12 21 -29 22
-29 1 0 -11 -6 -14 -20 -9 -13 4 -20 2 -20 -7 0 -7 -12 0 -26 15 -29 31 -43
26 -48 -17 -3 -30 -16 -48 -16 -23 0 10 -5 17 -11 17 -7 0 -9 -12 -5 -34 8
-43 -14 -91 -34 -73 -10 10 -12 8 -6 -6 4 -13 -2 -29 -19 -49 -14 -16 -25 -33
-25 -38 0 -4 -9 -6 -20 -3 -11 3 -20 0 -20 -6 0 -5 -7 -8 -15 -5 -9 4 -15 0
-15 -10 0 -9 7 -16 15 -16 8 0 15 -4 15 -8 0 -5 -14 -9 -32 -9 -21 0 -36 -7
-46 -21 -14 -21 -40 -32 -27 -12 3 6 2 10 -4 10 -5 0 -13 -9 -16 -20 -7 -22
-44 -27 -63 -8 -9 9 -12 8 -12 -5 0 -20 -11 -22 -28 -5 -17 17 -34 -9 -26 -36
6 -16 2 -18 -24 -13 -22 4 -35 1 -51 -15 -17 -15 -30 -19 -56 -14 -19 4 -36 2
-40 -4 -4 -7 -13 -7 -26 1 -15 8 -24 7 -35 -2 -13 -11 -14 -9 -9 13 5 19 1 32
-12 45 -23 23 -53 18 -53 -8 0 -11 -6 -27 -14 -35 -8 -7 -16 -19 -18 -26 -3
-9 -10 -8 -22 5 -22 21 -25 19 -28 -16 -2 -25 -28 -40 -28 -17 0 6 -5 10 -11
10 -6 0 -19 10 -30 23 l-18 22 -1 -24 c0 -18 -4 -22 -17 -16 -10 3 -40 11 -66
17 -40 8 -47 13 -42 29 4 13 2 19 -9 19 -9 0 -16 7 -16 16 0 11 -6 15 -20 11
-11 -3 -23 -1 -26 4 -3 6 -12 5 -22 -3 -11 -10 -16 -10 -19 -1 -2 7 -10 10
-18 7 -7 -3 -16 3 -20 15 -3 12 -11 19 -16 15 -5 -3 -27 3 -48 13 -28 13 -38
24 -38 42 0 13 -6 27 -13 31 -9 5 -9 9 -1 14 15 9 -4 46 -24 46 -25 0 -28 -21
-7 -50 12 -15 19 -30 16 -33 -10 -10 -44 6 -44 20 0 8 -5 13 -12 11 -7 -3 -23
5 -35 16 -17 15 -22 28 -19 48 2 15 1 28 -3 28 -4 0 -6 14 -3 30 4 30 -11 42
-21 16 -6 -14 -47 -29 -47 -17 0 3 9 13 20 21 23 17 26 30 6 30 -8 0 -17 -7
-20 -16 -3 -8 -11 -12 -16 -9 -6 4 -17 1 -25 -5 -11 -9 -18 -9 -30 3 -14 14
-13 17 3 29 10 7 22 19 26 26 9 15 -19 12 -52 -6 -12 -7 -28 -10 -35 -6 -9 5
-9 4 0 -7 7 -7 13 -21 13 -31 0 -10 5 -18 10 -18 6 0 10 -6 10 -13 0 -18 67
-142 85 -157 17 -14 21 -35 5 -25 -6 4 -10 -5 -10 -20 0 -15 4 -24 10 -20 6 4
8 11 5 16 -4 5 -3 9 2 9 4 -1 19 -23 32 -50 13 -28 31 -50 39 -50 9 0 13 -7
10 -17 -2 -10 4 -26 14 -36 10 -9 18 -14 18 -10 0 5 7 -5 15 -21 8 -15 12 -39
9 -52 -4 -15 -2 -24 5 -24 6 0 11 5 11 10 0 21 36 8 48 -18 22 -45 25 -59 8
-38 -16 19 -16 19 -16 -2 0 -12 4 -22 9 -22 5 0 11 -10 15 -22 4 -17 8 -20 15
-10 6 11 11 11 24 -2 8 -9 20 -16 25 -16 16 0 41 -46 48 -89 4 -23 11 -41 16
-41 6 0 7 8 4 17 -5 13 0 11 18 -6 31 -29 35 -17 5 15 -17 18 -18 22 -5 27 9
3 18 2 21 -3 3 -5 12 -7 20 -3 9 3 15 -1 15 -10 0 -8 6 -17 13 -20 25 -9 11
43 -19 68 -34 29 -14 33 31 6 21 -13 29 -25 27 -40 -2 -18 2 -21 17 -16 11 3
40 -4 66 -16 36 -17 49 -19 55 -10 10 18 46 9 42 -11 -3 -17 25 -45 35 -34 3
3 1 6 -5 6 -7 0 -12 5 -12 10 0 14 23 12 55 -4 26 -13 26 -14 6 -21 -29 -9
-27 -29 2 -21 50 12 90 -20 51 -42 -11 -6 -13 -11 -5 -16 6 -4 8 -18 5 -32 -6
-24 -5 -25 30 -19 30 6 36 4 36 -10 0 -11 5 -15 15 -11 10 3 15 -1 15 -11 0
-14 2 -14 19 1 13 11 25 15 33 9 7 -4 32 -8 56 -9 32 0 42 3 42 15 0 12 2 13
8 3 11 -17 40 -5 47 19 8 24 25 25 25 2 0 -14 2 -15 9 -5 4 7 12 12 17 10 5
-1 25 4 44 11 19 8 40 13 45 12 25 -3 117 38 131 58 11 16 19 19 28 12 9 -7
15 1 25 34 7 24 10 49 6 54 -3 6 -1 11 4 11 6 0 11 -6 11 -12 0 -7 8 1 18 17
17 27 17 31 3 37 -9 4 -11 7 -5 7 14 1 34 45 34 76 0 18 4 23 15 18 9 -3 15
-2 14 3 -4 25 3 46 21 61 11 10 20 27 20 38 0 11 7 31 16 43 14 20 14 22 -2
22 -15 0 -16 2 -2 18 9 9 28 46 43 82 28 69 33 83 60 170 9 30 22 69 30 85 24
55 28 124 10 152 -9 13 -14 27 -11 31 3 3 6 0 6 -7 0 -7 5 -9 10 -6 6 4 18 1
27 -7 15 -12 15 -11 4 10 -10 20 -9 22 10 22 41 0 11 12 -36 15 -26 2 -49 6
-53 11 -4 4 1 4 11 1 9 -4 17 -2 17 3 0 6 -4 10 -10 10 -5 0 -10 7 -10 16 0 9
5 12 12 8 8 -5 9 0 6 14 -4 14 -2 20 5 15 6 -4 8 0 4 9 -3 9 0 21 6 27 6 6 8
14 4 18 -4 3 -7 1 -7 -4z m-10 -213 c0 -11 -4 -20 -9 -20 -14 0 -23 18 -16 30
10 17 25 11 25 -10z m-23 -62 c-3 -8 -6 -5 -6 6 -1 11 2 17 5 13 3 -3 4 -12 1
-19z m-1357 -618 c0 -5 -2 -10 -4 -10 -3 0 -8 5 -11 10 -3 6 -1 10 4 10 6 0
11 -4 11 -10z"/>
<path d="M2102 2068 c-14 -14 -16 -28 -3 -28 9 0 24 30 18 36 -2 2 -9 -2 -15
-8z"/>
<path d="M2040 2040 c0 -5 5 -10 10 -10 6 0 10 5 10 10 0 6 -4 10 -10 10 -5 0
-10 -4 -10 -10z"/>
<path d="M2125 1959 c-10 -15 3 -25 16 -12 7 7 7 13 1 17 -6 3 -14 1 -17 -5z"/>
<path d="M2977 1923 c-16 -15 -6 -41 18 -45 13 -3 22 -1 19 3 -3 5 -1 9 4 9 5
0 12 9 15 20 6 21 -9 28 -16 8 -3 -10 -7 -10 -19 -1 -8 7 -18 10 -21 6z"/>
<path d="M1944 1245 c-81 -17 -100 -30 -124 -86 -17 -41 -28 -51 -77 -75 -32
-15 -67 -26 -79 -25 -28 3 -186 -52 -237 -83 -82 -49 -178 -96 -252 -126 -41
-16 -106 -45 -143 -64 -101 -51 -187 -84 -276 -107 -44 -11 -91 -29 -105 -39
-27 -18 -225 -110 -239 -110 -4 0 -43 -17 -87 -39 -44 -22 -105 -47 -135 -56
-30 -10 -85 -32 -122 -49 l-68 -31 0 -177 0 -178 3000 0 3000 0 0 83 0 83 -72
35 c-40 19 -167 83 -283 143 -115 59 -277 135 -360 168 -177 72 -330 150 -504
255 -69 42 -174 98 -232 123 -60 27 -131 67 -165 94 -32 26 -83 56 -113 67
-41 14 -66 32 -102 72 -35 39 -63 59 -104 75 -31 12 -61 22 -66 22 -21 0 -6
-40 26 -69 19 -17 35 -34 35 -39 0 -5 7 -15 16 -23 19 -16 64 -102 64 -124 0
-8 4 -15 9 -15 4 0 2 -34 -5 -75 -10 -58 -24 -95 -61 -156 -81 -137 -265 -341
-426 -473 -104 -85 -288 -167 -430 -192 -116 -20 -333 -13 -467 16 -357 78
-649 330 -840 725 -40 82 -49 110 -49 155 0 30 -3 70 -7 87 -5 28 -2 37 24 60
16 16 56 41 88 56 33 16 66 32 74 36 8 5 16 22 18 40 3 29 1 31 -30 30 -18 0
-61 -7 -94 -14z"/>
<path d="M2733 1079 c11 -7 15 -17 12 -32 -3 -12 0 -30 8 -40 12 -17 14 -18
27 -2 12 14 10 17 -8 22 -12 3 -22 10 -22 15 0 6 8 7 17 4 13 -5 11 0 -6 18
-14 15 -29 26 -35 26 -6 0 -3 -5 7 -11z"/>
<path d="M2649 1058 c-11 -20 -10 -21 3 -10 9 7 23 9 33 6 13 -5 16 -3 13 7
-8 23 -36 22 -49 -3z"/>
<path d="M3690 1059 c0 -5 5 -7 10 -4 6 3 10 8 10 11 0 2 -4 4 -10 4 -5 0 -10
-5 -10 -11z"/>
</g>
</svg>
